<?xml version="1.0" encoding="utf-8"?>
<!-- Generator: Adobe Illustrator 16.0.3, SVG Export Plug-In . SVG Version: 6.00 Build 0)  -->
<!DOCTYPE svg PUBLIC "-//W3C//DTD SVG 1.1//EN" "http://www.w3.org/Graphics/SVG/1.1/DTD/svg11.dtd">
<svg version="1.1" xmlns="http://www.w3.org/2000/svg" xmlns:xlink="http://www.w3.org/1999/xlink" x="0px" y="0px" width="400px"
							 height="400px" viewBox="0 0 600 600" enable-background="new 0 0 600 600" xml:space="preserve">
<g id="Capa_1">
	<polygon stroke="#000000" stroke-miterlimit="10" points="519.176,399.631 86.752,398.979 13.497,296.834 83.585,200.145 
								516.818,199.89 590.497,299.879 	"/>
</g>
<g id="Capa_2">
	<rect x="127" y="269" fill="none" width="357" height="56"/>
	<text class="font-weight-bolder" transform="matrix(1 0 0 1 127 314)" fill="#FFFFFF" font-size="60">BIENVENIDO</text>
	<path fill="#FFFFFF" d="M112,295.5c0,2.485-2.015,4.5-4.5,4.5h-40c-2.485,0-4.5-2.015-4.5-4.5l0,0c0-2.485,2.015-4.5,4.5-4.5h40
								C109.985,291,112,293.015,112,295.5L112,295.5z"/>
	<path fill="#FFFFFF" d="M537,295.5c0,2.485-2.015,4.5-4.5,4.5h-40c-2.485,0-4.5-2.015-4.5-4.5l0,0c0-2.485,2.015-4.5,4.5-4.5h40
								C534.985,292.5,537,294.515,537,297L537,297z"/>
</g>
</svg>
