<?xml version="1.0" encoding="utf-8"?>
<!-- Generator: Adobe Illustrator 16.0.3, SVG Export Plug-In . SVG Version: 6.00 Build 0)  -->
<!DOCTYPE svg PUBLIC "-//W3C//DTD SVG 1.1//EN" "http://www.w3.org/Graphics/SVG/1.1/DTD/svg11.dtd">
<svg version="1.1" id="Capa_1" xmlns="http://www.w3.org/2000/svg" xmlns:xlink="http://www.w3.org/1999/xlink" x="0px" y="0px"
	 width="350.752px" height="126.651px" viewBox="-0.143 11.824 350.752 126.651"
	 enable-background="new -0.143 11.824 350.752 126.651" xml:space="preserve">
<g id="Capa_1_1_">
	<polygon fill="#262626" stroke="#262626" stroke-width="4" stroke-miterlimit="10" points="305.407,136.473 46.211,136.072 
		2.303,73.351 44.313,13.98 303.993,13.824 348.158,75.22 	"/>
</g>
<rect x="70.336" y="56.259" fill="none" width="213.987" height="34.386"/>
<g enable-background="new    ">
	<path fill="#FFFFFF" d="M62.777,58.519h10.542c2.086,0,3.643,0.087,4.668,0.261s1.943,0.537,2.752,1.088
		c0.81,0.552,1.484,1.286,2.024,2.204c0.54,0.917,0.81,1.946,0.81,3.085c0,1.235-0.333,2.369-0.999,3.4s-1.568,1.805-2.708,2.32
		c1.607,0.468,2.842,1.266,3.706,2.393c0.863,1.127,1.295,2.453,1.295,3.976c0,1.199-0.279,2.365-0.836,3.499
		c-0.558,1.133-1.319,2.039-2.285,2.717c-0.965,0.677-2.156,1.094-3.571,1.25c-0.888,0.096-3.028,0.156-6.422,0.18h-8.977V58.519z
		 M68.102,62.907v6.099h3.49c2.075,0,3.364-0.029,3.868-0.09c0.911-0.107,1.628-0.423,2.15-0.944
		c0.521-0.521,0.782-1.208,0.782-2.06c0-0.815-0.225-1.479-0.674-1.988s-1.119-0.818-2.006-0.926
		c-0.528-0.061-2.045-0.091-4.551-0.091H68.102z M68.102,73.396v7.052h4.929c1.919,0,3.136-0.054,3.652-0.162
		c0.792-0.144,1.436-0.494,1.934-1.052c0.498-0.558,0.747-1.305,0.747-2.24c0-0.791-0.192-1.463-0.576-2.015
		c-0.384-0.552-0.938-0.953-1.664-1.205s-2.3-0.378-4.722-0.378H68.102z"/>
	<path fill="#FFFFFF" d="M89.203,84.891V58.519h5.325v26.372H89.203z"/>
	<path fill="#FFFFFF" d="M99.601,84.891V58.519h19.555v4.461h-14.229v5.847h13.24v4.443h-13.24v7.178h14.733v4.443H99.601z"/>
	<path fill="#FFFFFF" d="M124.229,84.891V58.519h5.181l10.793,17.611V58.519h4.947v26.372h-5.343l-10.631-17.198v17.198H124.229z"/>
	<path fill="#FFFFFF" d="M157.508,84.891l-9.426-26.372h5.774l6.674,19.519l6.458-19.519h5.649l-9.444,26.372H157.508z"/>
	<path fill="#FFFFFF" d="M175.354,84.891V58.519h19.554v4.461H180.68v5.847h13.24v4.443h-13.24v7.178h14.732v4.443H175.354z"/>
	<path fill="#FFFFFF" d="M199.981,84.891V58.519h5.181l10.794,17.611V58.519h4.946v26.372h-5.342l-10.632-17.198v17.198H199.981z"/>
	<path fill="#FFFFFF" d="M226.371,84.891V58.519h5.325v26.372H226.371z"/>
	<path fill="#FFFFFF" d="M236.752,58.519h9.732c2.194,0,3.867,0.168,5.019,0.504c1.548,0.455,2.872,1.265,3.976,2.428
		c1.104,1.164,1.943,2.588,2.519,4.272c0.575,1.686,0.864,3.764,0.864,6.233c0,2.171-0.271,4.042-0.811,5.613
		c-0.659,1.919-1.601,3.472-2.824,4.659c-0.924,0.899-2.17,1.601-3.742,2.104c-1.175,0.372-2.746,0.558-4.713,0.558h-10.02V58.519z
		 M242.076,62.979v17.468h3.977c1.486,0,2.561-0.084,3.22-0.252c0.863-0.216,1.58-0.581,2.149-1.098
		c0.57-0.515,1.035-1.363,1.395-2.545s0.539-2.791,0.539-4.83s-0.18-3.604-0.539-4.695c-0.359-1.091-0.863-1.943-1.512-2.555
		c-0.646-0.611-1.469-1.025-2.464-1.241c-0.744-0.168-2.201-0.252-4.372-0.252H242.076z"/>
	<path fill="#FFFFFF" d="M262.295,71.866c0-2.687,0.402-4.94,1.207-6.764c0.6-1.343,1.418-2.549,2.455-3.616
		s2.174-1.858,3.408-2.374c1.643-0.695,3.539-1.044,5.686-1.044c3.885,0,6.994,1.205,9.326,3.616c2.334,2.41,3.5,5.763,3.5,10.056
		c0,4.258-1.158,7.589-3.473,9.993s-5.408,3.607-9.281,3.607c-3.922,0-7.041-1.196-9.355-3.589S262.295,76.064,262.295,71.866z
		 M267.783,71.687c0,2.986,0.689,5.25,2.068,6.791s3.131,2.312,5.252,2.312c2.123,0,3.865-0.765,5.227-2.294
		c1.361-1.528,2.041-3.822,2.041-6.881c0-3.021-0.662-5.276-1.986-6.764c-1.326-1.487-3.086-2.23-5.281-2.23
		c-2.193,0-3.963,0.753-5.307,2.258C268.455,66.383,267.783,68.652,267.783,71.687z"/>
</g>
<path fill="#FFFFFF" stroke="#FFFFFF" stroke-miterlimit="10" d="M284.323,95.125c0,1.065-1.455,1.93-3.25,1.93H66.027
	c-1.795,0-3.25-0.864-3.25-1.93l0,0c0-1.065,1.455-1.93,3.25-1.93h215.046C282.868,93.195,284.323,94.06,284.323,95.125
	L284.323,95.125z"/>
</svg>
