<?xml version="1.0" encoding="utf-8"?>
<!-- Generator: Adobe Illustrator 16.0.3, SVG Export Plug-In . SVG Version: 6.00 Build 0)  -->
<!DOCTYPE svg PUBLIC "-//W3C//DTD SVG 1.1//EN" "http://www.w3.org/Graphics/SVG/1.1/DTD/svg11.dtd">
<svg version="1.1" id="Capa_1" xmlns="http://www.w3.org/2000/svg" xmlns:xlink="http://www.w3.org/1999/xlink" x="0px" y="0px"
	 width="350px" height="150px" viewBox="0 0 350 150" enable-background="new 0 0 350 150" xml:space="preserve">
<g id="Capa_1_1_">
	<polygon fill="#2F6160" stroke="#000000" stroke-miterlimit="10" points="305.407,136.473 46.211,136.072 2.303,73.351 
		44.313,13.98 303.993,13.824 348.158,75.22 	"/>
</g>
<rect x="70.336" y="56.259" fill="none" width="213.987" height="34.385"/>
<text transform="matrix(1 0 0 1 69.0786 83.8906)" fill="#FFFFFF" font-family="'ArialMT'" font-size="36.8421">BIENVENIDO</text>
<path fill="#FFFFFF" d="M58.649,72.532c0,1.526-1.208,2.763-2.698,2.763H31.974c-1.49,0-2.697-1.237-2.697-2.763l0,0
	c0-1.526,1.208-2.763,2.697-2.763h23.977C57.44,69.769,58.649,71.005,58.649,72.532L58.649,72.532z"/>
<path fill="#FFFFFF" d="M319.688,72.532c0,1.526-1.209,2.763-2.698,2.763h-23.976c-1.489,0-2.698-1.237-2.698-2.763l0,0
	c0-1.526,1.209-2.763,2.698-2.763h23.976c1.489,0.921,2.698,2.158,2.698,3.684l0,0V72.532z"/>
</svg>
