<?xml version="1.0" encoding="utf-8"?>
<!-- Generator: Adobe Illustrator 16.0.3, SVG Export Plug-In . SVG Version: 6.00 Build 0)  -->
<!DOCTYPE svg PUBLIC "-//W3C//DTD SVG 1.1//EN" "http://www.w3.org/Graphics/SVG/1.1/DTD/svg11.dtd">
<svg version="1.1" id="Capa_1" xmlns="http://www.w3.org/2000/svg" xmlns:xlink="http://www.w3.org/1999/xlink" x="0px" y="0px"
	 width="400px" height="400px" viewBox="0 0 400 400" enable-background="new 0 0 400 400" xml:space="preserve">
<g id="Capa_1_1_">
	<polygon stroke="#000000" stroke-miterlimit="10" points="346.117,266.421 57.834,265.986 8.998,197.889 55.723,133.43 
		344.545,133.26 393.665,199.919 	"/>
</g>
<rect x="84.667" y="179.333" fill="none" width="238" height="37.333"/>
<text transform="matrix(1 0 0 1 76.6665 209.334)" fill="#FFFFFF" font-family="'ArialMT'" font-size="40">BIENVENIDO</text>
<path fill="#FFFFFF" d="M71.667,197c0,1.657-1.343,3-3,3H42c-1.657,0-3-1.343-3-3l0,0c0-1.657,1.343-3,3-3h26.667
	C70.323,194,71.667,195.343,71.667,197L71.667,197z"/>
<path fill="#FFFFFF" d="M362,197c0,1.657-1.344,3-3,3h-26.667c-1.656,0-3-1.343-3-3l0,0c0-1.657,1.344-3,3-3H359
	c1.656,1,3,2.343,3,4l0,0V197z"/>
</svg>
