<svg version="1.1" id="Capa_1" xmlns="http://www.w3.org/2000/svg" xmlns:xlink="http://www.w3.org/1999/xlink" x="0px" y="0px"
	 width="400px" height="400px" viewBox="0 0 400 400" enable-background="new 0 0 400 400" xml:space="preserve">
<rect fill="#262626" width="400" height="400"/>
<g>
	<path fill="#FFFFFF" d="M32.046,204.233v-89.578h22.412c7.763,0,13.652,2.082,17.667,6.245c4.013,4.164,6.021,10.265,6.021,18.303
		c0,4.389-0.806,8.255-2.417,11.597c-1.612,3.343-3.853,5.794-6.724,7.352c3.281,1.149,5.867,3.466,7.756,6.952
		c1.89,3.487,2.834,7.752,2.834,12.797c0,8.613-1.963,15.135-5.889,19.564c-3.926,4.43-9.522,6.687-16.788,6.768H32.046z
		 M45.23,152.185h9.756c6.65-0.164,9.976-3.876,9.976-11.136c0-4.061-0.842-6.983-2.527-8.767c-1.685-1.784-4.344-2.676-7.976-2.676
		H45.23V152.185z M45.23,165.228v24.179h11.294c3.105,0,5.53-1.035,7.273-3.107c1.743-2.071,2.615-4.932,2.615-8.583
		c0-8.203-3.032-12.366-9.097-12.489H45.23z"/>
	<path fill="#FFFFFF" d="M137.912,114.655v59.001c0,9.803-2.19,17.555-6.57,23.256c-4.38,5.701-10.364,8.552-17.952,8.552
		c-7.471,0-13.403-2.769-17.798-8.306s-6.636-13.145-6.724-22.825v-59.678h13.184v59.124c0,5.866,1.003,10.142,3.01,12.828
		c2.006,2.687,4.783,4.03,8.328,4.03c7.412,0,11.177-5.455,11.294-16.365v-59.616H137.912z"/>
	<path fill="#FFFFFF" d="M172.409,171.441h-10.503v32.792h-13.184v-89.578h23.774c7.559,0,13.389,2.359,17.491,7.075
		c4.102,4.717,6.152,11.382,6.152,19.995c0,6.112-0.945,11.208-2.835,15.289c-1.889,4.082-4.753,7.332-8.591,9.751l13.843,36.606
		v0.861h-14.15L172.409,171.441z M161.906,156.491h10.635c3.311,0,5.874-1.179,7.69-3.538c1.816-2.358,2.725-5.608,2.725-9.751
		c0-4.224-0.857-7.546-2.571-9.967c-1.714-2.419-4.344-3.63-7.888-3.63h-10.591V156.491z"/>
	<path fill="#FFFFFF" d="M256.784,192.913c-2.373,3.979-5.728,7.065-10.063,9.259c-4.336,2.194-9.141,3.292-14.414,3.292
		c-5.537,0-10.393-1.692-14.567-5.076c-4.175-3.384-7.398-8.295-9.668-14.735c-2.271-6.439-3.436-14.006-3.494-22.702v-6.091
		c0-8.941,1.077-16.683,3.23-23.225c2.153-6.542,5.258-11.545,9.316-15.012c4.057-3.465,8.811-5.199,14.26-5.199
		c7.588,0,13.521,2.533,17.798,7.598c4.277,5.066,6.812,12.438,7.603,22.118h-12.832c-0.586-5.126-1.883-8.879-3.889-11.259
		c-2.008-2.378-4.769-3.568-8.284-3.568c-4.482,0-7.896,2.359-10.239,7.075c-2.344,4.717-3.53,11.731-3.56,21.041v5.722
		c0,9.393,1.274,16.488,3.823,21.287s6.284,7.198,11.206,7.198c4.951,0,8.481-1.477,10.591-4.43v-15.442h-11.997v-13.597h25.181
		V192.913z"/>
	<path fill="#FFFFFF" d="M305.959,165.412h-25.313v23.994h29.707v14.827h-42.891v-89.578h42.803v14.95h-29.619v21.349h25.313
		V165.412z"/>
	<path fill="#FFFFFF" d="M341.774,171.441h-10.503v32.792h-13.184v-89.578h23.774c7.559,0,13.389,2.359,17.49,7.075
		c4.102,4.717,6.152,11.382,6.152,19.995c0,6.112-0.944,11.208-2.834,15.289c-1.89,4.082-4.754,7.332-8.592,9.751l13.843,36.606
		v0.861h-14.15L341.774,171.441z M331.271,156.491h10.635c3.311,0,5.874-1.179,7.69-3.538c1.816-2.358,2.725-5.608,2.725-9.751
		c0-4.224-0.856-7.546-2.57-9.967c-1.714-2.419-4.344-3.63-7.889-3.63h-10.591V156.491z"/>
</g>
<path fill="#FFFFFF" d="M385.667,232.001c0,2.577-2.089,4.666-4.666,4.666H23c-2.577,0-4.667-2.089-4.667-4.666l0,0
	c0-2.578,2.089-4.667,4.667-4.667h358.001C383.578,227.334,385.667,229.423,385.667,232.001L385.667,232.001z"/>
<g>
	<path fill="#FFFFFF" d="M40.806,295.084v-31.992h9.448c3.428,0,6.028,0.707,7.8,2.122c1.772,1.414,2.659,3.499,2.659,6.255
		c0,1.656-0.45,3.097-1.352,4.32c-0.9,1.224-2.135,2.1-3.702,2.627c1.86,0.41,3.358,1.325,4.493,2.745s1.703,3.06,1.703,4.919
		c0,2.826-0.912,5.033-2.735,6.621c-1.824,1.589-4.362,2.383-7.614,2.383H40.806z M43.508,277.439h7.383
		c2.256-0.043,4.002-0.575,5.241-1.596c1.237-1.02,1.856-2.506,1.856-4.457c0-2.055-0.641-3.569-1.923-4.546
		c-1.282-0.976-3.219-1.464-5.812-1.464h-6.746V277.439z M43.508,279.725v13.074h8.108c2.314,0,4.149-0.589,5.504-1.766
		c1.355-1.178,2.033-2.812,2.033-4.902c0-1.975-0.648-3.535-1.945-4.684c-1.296-1.148-3.087-1.723-5.372-1.723H43.508z"/>
	<path fill="#FFFFFF" d="M82.773,295.084c-0.264-0.747-0.432-1.853-0.505-3.318c-0.923,1.202-2.098,2.128-3.527,2.78
		c-1.428,0.651-2.94,0.978-4.537,0.978c-2.285,0-4.135-0.637-5.548-1.912c-1.414-1.273-2.121-2.885-2.121-4.834
		c0-2.313,0.963-4.145,2.889-5.492s4.611-2.021,8.053-2.021h4.768v-2.703c0-1.699-0.524-3.036-1.571-4.01
		c-1.047-0.975-2.574-1.461-4.581-1.461c-1.831,0-3.347,0.469-4.548,1.406s-1.802,2.064-1.802,3.383l-2.637-0.021
		c0-1.89,0.879-3.526,2.637-4.911c1.758-1.384,3.918-2.076,6.482-2.076c2.651,0,4.742,0.663,6.273,1.988
		c1.53,1.326,2.318,3.175,2.362,5.548v11.25c0,2.301,0.242,4.021,0.725,5.164v0.264H82.773z M74.512,293.194
		c1.758,0,3.329-0.425,4.713-1.274c1.385-0.85,2.392-1.984,3.021-3.406v-5.229h-4.702c-2.622,0.029-4.673,0.509-6.152,1.438
		c-1.479,0.931-2.219,2.208-2.219,3.835c0,1.333,0.495,2.438,1.483,3.317C71.645,292.755,72.93,293.194,74.512,293.194z"/>
	<path fill="#FFFFFF" d="M102.856,273.551c-0.557-0.103-1.15-0.154-1.78-0.154c-1.641,0-3.029,0.458-4.164,1.374
		c-1.136,0.915-1.945,2.245-2.428,3.987v16.326H91.87V271.31h2.571l0.044,3.779c1.392-2.813,3.625-4.219,6.702-4.219
		c0.732,0,1.311,0.096,1.736,0.286L102.856,273.551z"/>
	<path fill="#FFFFFF" d="M123.401,277.638c-1.274-1.538-2.201-2.911-2.78-4.12c-0.579-1.208-0.868-2.406-0.868-3.592
		c0-2.242,0.667-4.014,2-5.318c1.333-1.303,3.12-1.955,5.361-1.955c2.036,0,3.684,0.59,4.944,1.769c1.26,1.18,1.89,2.678,1.89,4.493
		c0,2.109-1.216,4.183-3.647,6.219l-3.516,2.725l8.789,10.239c1.333-2.153,2-4.593,2-7.317h2.439c0,3.634-0.938,6.702-2.813,9.207
		l4.373,5.098h-3.164l-2.769-3.208c-1.157,1.143-2.494,2.036-4.01,2.681c-1.517,0.645-3.117,0.967-4.801,0.967
		c-3.047,0-5.464-0.78-7.251-2.34c-1.787-1.561-2.681-3.644-2.681-6.252c0-1.552,0.458-3.021,1.374-4.405
		c0.915-1.384,2.523-2.94,4.823-4.669L123.401,277.638z M126.829,293.305c1.333,0,2.625-0.282,3.878-0.847
		c1.252-0.563,2.376-1.365,3.373-2.405l-8.943-10.371l-0.308-0.33l-1.011,0.77c-2.871,2.344-4.307,4.613-4.307,6.811
		c0,1.92,0.659,3.461,1.978,4.626C122.808,292.722,124.587,293.305,126.829,293.305z M122.39,269.838
		c0,1.787,0.989,3.896,2.966,6.328l2.878-2.197c0.938-0.674,1.707-1.414,2.307-2.22s0.901-1.75,0.901-2.835
		c0-1.143-0.396-2.098-1.187-2.867c-0.791-0.769-1.846-1.153-3.164-1.153c-1.436,0-2.578,0.462-3.428,1.384
		C122.815,267.201,122.39,268.387,122.39,269.838z"/>
	<path fill="#FFFFFF" d="M169.148,281.746h-9.294v13.338h-2.725v-31.992h10.393c3.413,0,6.079,0.827,7.998,2.48
		s2.878,3.965,2.878,6.935c0,2.049-0.601,3.855-1.802,5.421s-2.813,2.648-4.834,3.248l7.998,13.622v0.286h-2.878L169.148,281.746z
		 M159.854,279.461h8.284c2.271,0,4.094-0.645,5.471-1.937c1.377-1.291,2.065-2.963,2.065-5.018c0-2.259-0.718-4.012-2.153-5.259
		s-3.45-1.871-6.042-1.871h-7.625V279.461z"/>
	<path fill="#FFFFFF" d="M194.351,295.523c-2.021,0-3.849-0.498-5.482-1.494c-1.633-0.996-2.904-2.384-3.812-4.164
		c-0.908-1.779-1.362-3.775-1.362-5.987v-0.944c0-2.285,0.443-4.344,1.33-6.175c0.886-1.831,2.12-3.271,3.702-4.317
		c1.582-1.048,3.296-1.571,5.142-1.571c2.886,0,5.175,0.985,6.866,2.955c1.692,1.971,2.538,4.662,2.538,8.075v1.473h-16.963v0.505
		c0,2.695,0.772,4.94,2.318,6.734c1.545,1.795,3.489,2.692,5.833,2.692c1.406,0,2.648-0.257,3.725-0.77
		c1.077-0.513,2.055-1.333,2.934-2.461l1.648,1.252C200.833,294.125,198.027,295.523,194.351,295.523z M193.867,273.111
		c-1.978,0-3.644,0.725-4.999,2.176c-1.355,1.449-2.179,3.398-2.472,5.844h14.261v-0.285c-0.074-2.285-0.726-4.146-1.956-5.581
		S195.859,273.111,193.867,273.111z"/>
	<path fill="#FFFFFF" d="M222.63,289.041c0-1.303-0.523-2.351-1.571-3.142c-1.047-0.791-2.626-1.41-4.735-1.856
		c-2.109-0.447-3.746-0.96-4.91-1.538c-1.165-0.579-2.029-1.286-2.593-2.12c-0.564-0.836-0.847-1.846-0.847-3.033
		c0-1.874,0.784-3.424,2.352-4.646c1.567-1.224,3.574-1.835,6.021-1.835c2.651,0,4.779,0.655,6.383,1.967
		c1.604,1.311,2.406,3.021,2.406,5.13h-2.637c0-1.391-0.582-2.549-1.747-3.471c-1.164-0.924-2.633-1.385-4.405-1.385
		c-1.729,0-3.116,0.385-4.164,1.153c-1.047,0.77-1.571,1.769-1.571,2.999c0,1.188,0.437,2.106,1.308,2.758
		c0.872,0.652,2.461,1.249,4.769,1.791c2.307,0.542,4.035,1.121,5.186,1.736c1.149,0.615,2.003,1.354,2.56,2.219
		s0.835,1.912,0.835,3.143c0,2.007-0.81,3.61-2.428,4.812c-1.619,1.201-3.732,1.802-6.34,1.802c-2.768,0-5.013-0.67-6.734-2.011
		c-1.721-1.34-2.582-3.035-2.582-5.087h2.637c0.103,1.539,0.751,2.736,1.945,3.593c1.193,0.857,2.771,1.286,4.734,1.286
		c1.831,0,3.311-0.403,4.439-1.209C222.065,291.29,222.63,290.271,222.63,289.041z"/>
	<path fill="#FFFFFF" d="M235.264,265.223v6.087h4.922v2.153h-4.922v15.859c0,1.32,0.238,2.303,0.714,2.948
		c0.477,0.646,1.271,0.968,2.385,0.968c0.439,0,1.149-0.073,2.131-0.22l0.109,2.135c-0.688,0.246-1.625,0.37-2.813,0.37
		c-1.801,0-3.112-0.523-3.933-1.571c-0.82-1.047-1.23-2.589-1.23-4.625v-15.864h-4.372v-2.153h4.372v-6.087H235.264z"/>
	<path fill="#FFFFFF" d="M260.642,295.084c-0.264-0.747-0.432-1.853-0.505-3.318c-0.923,1.202-2.099,2.128-3.526,2.78
		c-1.429,0.651-2.941,0.978-4.537,0.978c-2.285,0-4.135-0.637-5.549-1.912c-1.413-1.273-2.12-2.885-2.12-4.834
		c0-2.313,0.963-4.145,2.89-5.492c1.926-1.348,4.61-2.021,8.053-2.021h4.768v-2.703c0-1.699-0.523-3.036-1.57-4.01
		c-1.048-0.975-2.575-1.461-4.582-1.461c-1.831,0-3.347,0.469-4.548,1.406s-1.802,2.064-1.802,3.383l-2.637-0.021
		c0-1.89,0.879-3.526,2.637-4.911c1.758-1.384,3.918-2.076,6.482-2.076c2.65,0,4.742,0.663,6.272,1.988
		c1.531,1.326,2.318,3.175,2.362,5.548v11.25c0,2.301,0.242,4.021,0.725,5.164v0.264H260.642z M252.38,293.194
		c1.758,0,3.329-0.425,4.714-1.274c1.384-0.85,2.391-1.984,3.021-3.406v-5.229h-4.701c-2.623,0.029-4.674,0.509-6.152,1.438
		c-1.48,0.931-2.22,2.208-2.22,3.835c0,1.333,0.494,2.438,1.483,3.317C249.513,292.755,250.798,293.194,252.38,293.194z"/>
	<path fill="#FFFFFF" d="M285.032,292.074c-1.582,2.3-4.109,3.449-7.58,3.449c-2.535,0-4.461-0.736-5.779-2.208
		c-1.318-1.473-1.992-3.651-2.021-6.537V271.31h2.615v15.14c0,4.525,1.83,6.789,5.492,6.789c3.809,0,6.219-1.574,7.229-4.725V271.31
		h2.637v23.774h-2.549L285.032,292.074z"/>
	<path fill="#FFFFFF" d="M305.444,273.551c-0.557-0.103-1.15-0.154-1.779-0.154c-1.642,0-3.029,0.458-4.164,1.374
		c-1.136,0.915-1.945,2.245-2.428,3.987v16.326h-2.615V271.31h2.57l0.045,3.779c1.391-2.813,3.625-4.219,6.701-4.219
		c0.732,0,1.311,0.096,1.736,0.286L305.444,273.551z"/>
	<path fill="#FFFFFF" d="M323.726,295.084c-0.264-0.747-0.433-1.853-0.506-3.318c-0.923,1.202-2.099,2.128-3.526,2.78
		c-1.429,0.651-2.941,0.978-4.538,0.978c-2.285,0-4.134-0.637-5.548-1.912c-1.413-1.273-2.12-2.885-2.12-4.834
		c0-2.313,0.963-4.145,2.89-5.492c1.926-1.348,4.61-2.021,8.053-2.021h4.769v-2.703c0-1.699-0.524-3.036-1.571-4.01
		c-1.048-0.975-2.575-1.461-4.581-1.461c-1.832,0-3.348,0.469-4.549,1.406s-1.802,2.064-1.802,3.383l-2.637-0.021
		c0-1.89,0.879-3.526,2.637-4.911c1.758-1.384,3.918-2.076,6.481-2.076c2.651,0,4.743,0.663,6.273,1.988
		c1.531,1.326,2.318,3.175,2.362,5.548v11.25c0,2.301,0.241,4.021,0.726,5.164v0.264H323.726z M315.464,293.194
		c1.758,0,3.328-0.425,4.713-1.274c1.384-0.85,2.391-1.984,3.021-3.406v-5.229h-4.703c-2.622,0.029-4.673,0.509-6.152,1.438
		c-1.479,0.931-2.219,2.208-2.219,3.835c0,1.333,0.494,2.438,1.483,3.317C312.596,292.755,313.882,293.194,315.464,293.194z"/>
	<path fill="#FFFFFF" d="M335.326,271.31l0.088,4.065c0.894-1.465,2.007-2.582,3.34-3.352c1.333-0.769,2.805-1.153,4.417-1.153
		c2.549,0,4.445,0.718,5.69,2.153s1.875,3.589,1.89,6.46v15.601h-2.615v-15.623c-0.015-2.123-0.465-3.705-1.351-4.746
		c-0.887-1.039-2.304-1.56-4.252-1.56c-1.626,0-3.065,0.509-4.317,1.527c-1.253,1.018-2.18,2.392-2.779,4.12v16.281h-2.615V271.31
		H335.326z"/>
	<path fill="#FFFFFF" d="M361.627,265.223v6.087h4.922v2.153h-4.922v15.859c0,1.32,0.238,2.303,0.714,2.948
		c0.477,0.646,1.271,0.968,2.385,0.968c0.439,0,1.149-0.073,2.131-0.22l0.109,2.135c-0.688,0.246-1.625,0.37-2.813,0.37
		c-1.801,0-3.112-0.523-3.933-1.571c-0.82-1.047-1.23-2.589-1.23-4.625v-15.864h-4.372v-2.153h4.372v-6.087H361.627z"/>
</g>
</svg>
