<svg xmlns="http://www.w3.org/2000/svg" viewBox="0 0 450.88 282.95"><defs><style>.cls-1{fill:#ffa42c;}.cls-2{fill:#a5343f;}</style></defs><title>Villa burger titulo lateral vino</title><g id="Logo_v2" data-name="Logo v2"><g id="Capa_12" data-name="Capa 12"><path class="cls-1" d="M5.33.11,24,77.13,42.75.11h2.4L26,80H22.21L2.7.11Z"/><path class="cls-1" d="M56.44.11V80H53.93V.11Z"/><path class="cls-1" d="M65.57,80V.11h2.51V77.59H94.89V80Z"/><path class="cls-1" d="M103.56,80V.11h2.51V77.59h26.82V80Z"/><path class="cls-1" d="M148.18,61.16,143.5,80h-2.28L160.5,0H164l19.74,80h-2.51l-4.68-18.83Zm.45-2.28h27.5L162.21,3Z"/><path class="cls-2" d="M2.28,242.11V101.32H33.43q16.73,0,24.46,6.69t7.75,22.18v9.94c0,2.88-.06,5.72-.18,8.54q-.52,8.45-3.78,13.46t-10.3,7.13v3.52q7.4,2.1,10.74,7.21t3.69,13.73q.36,5.46.27,9.85c-.06,2.94-.15,6.16-.27,9.68q-.53,15.5-7.92,22.18t-24.28,6.68Zm20.06-80.25h11.8q11.25,0,11.26-13.72c.11-3.4.18-6.57.18-9.51s-.07-6.1-.18-9.5q0-9.85-12-9.85H22.34Zm0,62.3H33.61c4.22,0,7.27-.9,9.15-2.72s2.87-4.61,3-8.36q.18-9.33,0-18.48-.18-8.1-2.81-11.44t-9-3.35H22.34Z"/><path class="cls-2" d="M112.63,243.52q-17.43,0-25-6.86T79.72,214q-.36-28.15-.35-56.32t.35-56.32H100q-.54,28.17-.36,57.38t.36,57.37q0,10.74,12.67,10.73t12.67-10.73q.18-28.15.35-57.37t-.35-57.38h20.24q.35,28.17.35,56.32T145.54,214q-.18,15.84-7.83,22.7T112.63,243.52Z"/><path class="cls-2" d="M163.31,242.11V101.32h31q16.53,0,23.84,6.69T226,129.83q.36,10,.36,17.16c0,4.76-.12,10.06-.36,15.93q-.35,9.86-3.43,16a19.45,19.45,0,0,1-9.59,9.16l15.31,54H207l-13.2-50.68H183.37v50.68Zm20.06-68.63h10.92c4,0,6.86-.76,8.62-2.29s2.75-3.93,3-7.21q.34-9.33.35-17.6c0-5.52-.12-11.32-.35-17.43-.24-3.4-1.23-5.86-3-7.39s-4.64-2.28-8.62-2.28H183.37Z"/><path class="cls-2" d="M273,243.52q-17.42,0-25.07-6.86t-8.19-22.88q-.18-12.84-.35-27.28t0-28.86q.18-14.43.35-27.1.7-16.36,8.27-23.5t25-7.12q16.91,0,24.47,6.86t8.44,22.7q.54,11.45,0,22.7H285.62q.54-12.48,0-24.81-.35-6-3.08-8.36c-1.82-1.58-5-2.38-9.59-2.38s-8,.8-9.85,2.38-2.94,4.37-3.17,8.36q-.89,22.69-.88,44.35t.88,44.17c.23,4.11,1.29,7,3.17,8.54s5.16,2.37,9.85,2.37q7.57,0,10.47-2.37c1.94-1.59,3-4.43,3.26-8.54a191.75,191.75,0,0,0,0-20.06H274.89V178.05h31.5q.36,9.51.27,18.57c-.07,6-.21,11.76-.44,17.16q-.54,16-8.19,22.88T273,243.52Z"/><path class="cls-2" d="M318.18,242.11V101.32h55.44v18H338.24v42.58h33.62v17.95H338.24v44.35h35.38v18Z"/><path class="cls-2" d="M385.94,242.11V101.32h31q16.54,0,23.85,6.69t7.83,21.82q.35,10,.35,17.16c0,4.76-.12,10.06-.35,15.93q-.36,9.86-3.43,16a19.51,19.51,0,0,1-9.6,9.16l15.32,54h-21.3l-13.2-50.68H406v50.68ZM406,173.48h10.91q6,0,8.62-2.29c1.76-1.52,2.76-3.93,3-7.21q.35-9.33.35-17.6c0-5.52-.12-11.32-.35-17.43q-.36-5.1-3-7.39t-8.62-2.28H406Z"/><path d="M11.68,261.52V262H10.8v-.56c0-3.32-1.24-6.12-4.88-6.12S1,258.12,1,261.44c0,7.15,10.72,6.95,10.72,14.55,0,3.88-1.6,7-5.88,7S0,279.87,0,276v-1.36H.84V276c0,3.4,1.32,6.08,5,6.08s5-2.68,5-6.08c0-7.08-10.72-6.84-10.72-14.55,0-4.08,1.72-6.88,5.76-6.92C10.12,254.56,11.68,257.68,11.68,261.52Z"/><path d="M17.16,276.15l-1.64,6.6h-.8l6.76-28h1.24l6.92,28h-.88l-1.64-6.6Zm.16-.8H27l-4.88-19.59Z"/><path d="M38.32,254.76c4.08,0,5.4,2,5.4,5.8v1.8c0,3.11-.84,5-4,5.47,3.32.48,4.56,2.76,4.56,6v2.48c0,4-1.68,6.44-5.92,6.44H32.72v-28Zm-1.08,12.71c3.88,0,5.6-.92,5.6-5V260.6c0-3.28-1-5-4.52-5H33.6v11.87Zm1.12,14.44c3.68,0,5-2.08,5-5.6v-2.52c0-4-1.92-5.52-5.76-5.52h-4v13.64Z"/><path d="M47.36,261.64c0-4.64,2-7.08,5.92-7.08s6,2.44,6,7.08v14.23c0,4.64-2,7.08-6,7.08s-5.92-2.44-5.92-7.08Zm.88,14.27c0,4.12,1.72,6.24,5,6.24s5.12-2.12,5.12-6.24V261.6c0-4.12-1.76-6.24-5.12-6.24s-5,2.12-5,6.24Z"/><path d="M68,254.76c4.16,0,5.76,2.44,5.76,6.28v2.51c0,3.44-1.36,5.32-4.44,5.88,3.12.48,4.44,2.52,4.44,5.6v4.4a5.91,5.91,0,0,0,.76,3.32h-1a6.35,6.35,0,0,1-.68-3.32V275c0-4.12-2.48-5.2-6.12-5.2H63.32v12.92h-.88v-28ZM66.76,269c3.88,0,6.12-1,6.12-5.32v-2.55c0-3.4-1.32-5.52-4.92-5.52H63.32V269Z"/><path d="M84.68,275.87c0,3.36,1.2,6.28,4.92,6.28s4.92-2.92,4.92-6.28V254.76h.84v21.07c0,3.84-1.52,7.12-5.76,7.12s-5.8-3.28-5.8-7.12V254.76h.88Z"/><path d="M104.08,254.76c4.16,0,5.76,2.44,5.76,6.28v2.51c0,3.44-1.36,5.32-4.44,5.88,3.12.48,4.44,2.52,4.44,5.6v4.4a5.91,5.91,0,0,0,.76,3.32h-1a6.35,6.35,0,0,1-.68-3.32V275c0-4.12-2.48-5.2-6.12-5.2H99.4v12.92h-.88v-28ZM102.84,269c3.88,0,6.12-1,6.12-5.32v-2.55c0-3.4-1.32-5.52-4.92-5.52H99.4V269Z"/><path d="M119.32,254.76c4.08,0,5.4,2,5.4,5.8v1.8c0,3.11-.84,5-4,5.47,3.32.48,4.56,2.76,4.56,6v2.48c0,4-1.68,6.44-5.92,6.44h-5.64v-28Zm-1.08,12.71c3.88,0,5.6-.92,5.6-5V260.6c0-3.28-1-5-4.52-5H114.6v11.87Zm1.12,14.44c3.68,0,5-2.08,5-5.6v-2.52c0-4-1.92-5.52-5.76-5.52h-4v13.64Z"/><path d="M130.72,276.15l-1.64,6.6h-.8l6.76-28h1.24l6.92,28h-.88l-1.64-6.6Zm.16-.8h9.64l-4.88-19.59Z"/><path d="M147.12,282.75h-.84v-28h1.24L157.35,281V254.76h.84v28h-1.07l-10-26.71Z"/><path d="M161.36,261.64c0-4.64,2-7.08,5.92-7.08s6,2.44,6,7.08v14.23c0,4.64-2,7.08-6,7.08s-5.92-2.44-5.92-7.08Zm.88,14.27c0,4.12,1.72,6.24,5,6.24s5.11-2.12,5.11-6.24V261.6c0-4.12-1.75-6.24-5.11-6.24s-5,2.12-5,6.24Z"/></g></g></svg>