<svg xmlns="http://www.w3.org/2000/svg" viewBox="0 0 450.88 282.95"><defs><style>.cls-1{fill:#ffa42c;}.cls-2{fill:#a5343f;}</style></defs><title>Villa burger titulo centrado vino</title><g id="Logo_v2" data-name="Logo v2"><g id="Capa_12" data-name="Capa 12"><path class="cls-1" d="M144.93.11l18.72,77,18.71-77h2.4L165.59,80h-3.77L142.31.11Z"/><path class="cls-1" d="M196.05.11V80h-2.51V.11Z"/><path class="cls-1" d="M205.18,80V.11h2.51V77.59H234.5V80Z"/><path class="cls-1" d="M243.17,80V.11h2.51V77.59H272.5V80Z"/><path class="cls-1" d="M287.78,61.16,283.1,80h-2.28L300.11,0h3.53l19.74,80h-2.51L316.2,61.16Zm.46-2.28h27.5L301.82,3Z"/><path class="cls-2" d="M2.28,242.11V101.32H33.43q16.73,0,24.46,6.69t7.75,22.18v9.94c0,2.88-.06,5.72-.18,8.54q-.52,8.45-3.78,13.46t-10.3,7.13v3.52q7.4,2.1,10.74,7.21t3.69,13.73q.36,5.46.27,9.85c-.06,2.94-.15,6.16-.27,9.68q-.53,15.5-7.92,22.18t-24.28,6.68Zm20.06-80.25h11.8q11.25,0,11.26-13.72c.11-3.4.18-6.57.18-9.51s-.07-6.1-.18-9.5q0-9.85-12-9.85H22.34Zm0,62.3H33.61c4.22,0,7.27-.9,9.15-2.72s2.87-4.61,3-8.36q.18-9.33,0-18.48-.18-8.1-2.81-11.44t-9-3.35H22.34Z"/><path class="cls-2" d="M112.63,243.52q-17.43,0-25-6.86T79.72,214q-.36-28.15-.35-56.32t.35-56.32H100q-.54,28.17-.36,57.38t.36,57.37q0,10.74,12.67,10.73t12.67-10.73q.18-28.15.35-57.37t-.35-57.38h20.24q.35,28.17.35,56.32T145.54,214q-.18,15.84-7.83,22.7T112.63,243.52Z"/><path class="cls-2" d="M163.31,242.11V101.32h31q16.53,0,23.84,6.69T226,129.83q.36,10,.36,17.16c0,4.76-.12,10.06-.36,15.93q-.35,9.86-3.43,16a19.45,19.45,0,0,1-9.59,9.16l15.31,54H207l-13.2-50.68H183.37v50.68Zm20.06-68.63h10.92c4,0,6.86-.76,8.62-2.29s2.75-3.93,3-7.21q.34-9.33.35-17.6c0-5.52-.12-11.32-.35-17.43-.24-3.4-1.23-5.86-3-7.39s-4.64-2.28-8.62-2.28H183.37Z"/><path class="cls-2" d="M273,243.52q-17.42,0-25.07-6.86t-8.19-22.88q-.18-12.84-.35-27.28t0-28.86q.18-14.43.35-27.1.7-16.36,8.27-23.5t25-7.12q16.91,0,24.47,6.86t8.44,22.7q.54,11.45,0,22.7H285.62q.54-12.48,0-24.81-.35-6-3.08-8.36c-1.82-1.58-5-2.38-9.59-2.38s-8,.8-9.85,2.38-2.94,4.37-3.17,8.36q-.89,22.69-.88,44.35t.88,44.17c.23,4.11,1.29,7,3.17,8.54s5.16,2.37,9.85,2.37q7.57,0,10.47-2.37c1.94-1.59,3-4.43,3.26-8.54a191.75,191.75,0,0,0,0-20.06H274.89V178.05h31.5q.36,9.51.27,18.57c-.07,6-.21,11.76-.44,17.16q-.54,16-8.19,22.88T273,243.52Z"/><path class="cls-2" d="M318.18,242.11V101.32h55.44v18H338.24v42.58h33.62v17.95H338.24v44.35h35.38v18Z"/><path class="cls-2" d="M385.94,242.11V101.32h31q16.54,0,23.85,6.69t7.83,21.82q.35,10,.35,17.16c0,4.76-.12,10.06-.35,15.93q-.36,9.86-3.43,16a19.51,19.51,0,0,1-9.6,9.16l15.32,54h-21.3l-13.2-50.68H406v50.68ZM406,173.48h10.91q6,0,8.62-2.29c1.76-1.52,2.76-3.93,3-7.21q.35-9.33.35-17.6c0-5.52-.12-11.32-.35-17.43q-.36-5.1-3-7.39t-8.62-2.28H406Z"/><path d="M155,259.76v.51h-.88v-.55c0-3.32-1.24-6.12-4.88-6.12s-4.92,2.76-4.92,6.08c0,7.15,10.72,6.95,10.72,14.55,0,3.88-1.6,7-5.88,7s-5.84-3.08-5.84-7v-1.36h.84v1.4c0,3.4,1.32,6.08,5,6.08s5-2.68,5-6.08c0-7.08-10.72-6.84-10.72-14.55,0-4.08,1.72-6.88,5.76-6.92C153.39,252.8,155,255.92,155,259.76Z"/><path d="M160.43,274.39l-1.64,6.6H158l6.76-28H166l6.92,28H172l-1.64-6.6Zm.16-.8h9.64L165.35,254Z"/><path d="M181.59,253c4.08,0,5.4,2,5.4,5.8v1.8c0,3.11-.84,5-4,5.47,3.32.48,4.56,2.76,4.56,6v2.48c0,4-1.68,6.44-5.92,6.44H176V253Zm-1.08,12.71c3.88,0,5.6-.92,5.6-5v-1.88c0-3.28-1-5-4.52-5h-4.72v11.87Zm1.12,14.44c3.68,0,5-2.08,5-5.6V272c0-4-1.92-5.52-5.76-5.52h-4v13.64Z"/><path d="M190.63,259.88c0-4.64,2-7.08,5.92-7.08s6,2.44,6,7.08v14.23c0,4.64-2,7.08-6,7.08s-5.92-2.44-5.92-7.08Zm.88,14.27c0,4.12,1.72,6.24,5,6.24s5.12-2.12,5.12-6.24V259.84c0-4.12-1.76-6.24-5.12-6.24s-5,2.12-5,6.24Z"/><path d="M211.27,253c4.16,0,5.76,2.44,5.76,6.27v2.52c0,3.44-1.36,5.32-4.44,5.88,3.12.48,4.44,2.52,4.44,5.6v4.4a5.91,5.91,0,0,0,.76,3.32h-1a6.35,6.35,0,0,1-.68-3.32v-4.4c0-4.12-2.48-5.2-6.12-5.2h-3.44V281h-.88V253ZM210,267.23c3.88,0,6.12-1,6.12-5.32v-2.56c0-3.39-1.32-5.51-4.92-5.51h-4.64v13.39Z"/><path d="M228,274.11c0,3.36,1.2,6.28,4.92,6.28s4.92-2.92,4.92-6.28V253h.84v21.07c0,3.84-1.52,7.12-5.76,7.12s-5.8-3.28-5.8-7.12V253H228Z"/><path d="M247.35,253c4.16,0,5.76,2.44,5.76,6.27v2.52c0,3.44-1.36,5.32-4.44,5.88,3.12.48,4.44,2.52,4.44,5.6v4.4a5.91,5.91,0,0,0,.76,3.32h-1a6.35,6.35,0,0,1-.68-3.32v-4.4c0-4.12-2.48-5.2-6.12-5.2h-3.44V281h-.88V253Zm-1.24,14.23c3.88,0,6.12-1,6.12-5.32v-2.56c0-3.39-1.32-5.51-4.92-5.51h-4.64v13.39Z"/><path d="M262.59,253c4.08,0,5.4,2,5.4,5.8v1.8c0,3.11-.84,5-4,5.47,3.32.48,4.56,2.76,4.56,6v2.48c0,4-1.68,6.44-5.92,6.44H257V253Zm-1.08,12.71c3.88,0,5.6-.92,5.6-5v-1.88c0-3.28-1-5-4.52-5h-4.72v11.87Zm1.12,14.44c3.68,0,5-2.08,5-5.6V272c0-4-1.92-5.52-5.76-5.52h-4v13.64Z"/><path d="M274,274.39l-1.64,6.6h-.8l6.76-28h1.24l6.91,28h-.88l-1.64-6.6Zm.16-.8h9.63L278.91,254Z"/><path d="M290.39,281h-.84V253h1.24l9.83,26.19V253h.84v28h-1.08l-10-26.71Z"/><path d="M304.63,259.88c0-4.64,2-7.08,5.91-7.08s6,2.44,6,7.08v14.23c0,4.64-2,7.08-6,7.08s-5.91-2.44-5.91-7.08Zm.88,14.27c0,4.12,1.72,6.24,5,6.24s5.12-2.12,5.12-6.24V259.84c0-4.12-1.76-6.24-5.12-6.24s-5,2.12-5,6.24Z"/></g></g></svg>