<svg xmlns="http://www.w3.org/2000/svg" viewBox="0 0 842.54 539.85"><defs><style>.cls-1{fill:#a5343f;}.cls-2{fill:#262626;}.cls-3{fill:#fff;}.cls-4{fill:#ffa42c;}</style></defs><title>Villa burger completo negro</title><g id="Logo_v2" data-name="Logo v2"><g id="Capa_12" data-name="Capa 12"><path class="cls-1" d="M2.35,144.55H331.22a155.94,155.94,0,0,1-.23,49.09H2.35a129.15,129.15,0,0,1,0-49.09Z"/><circle class="cls-2" cx="166.33" cy="166.33" r="166.33"/><path class="cls-2" d="M4.72,208.8c8.18,21.14,116.83,301.58,130.52,316.57a50.72,50.72,0,0,0,8.86,7.5,39.42,39.42,0,0,0,45-.11,53,53,0,0,0,8.25-6.71C210.7,512.36,319.76,230.2,327.78,209.43Z"/><circle class="cls-3" cx="166.25" cy="160.42" r="117.92"/><circle class="cls-4" cx="166.53" cy="161.1" r="102.84"/><rect class="cls-3" x="38.53" y="152.08" width="256.82" height="33.79" rx="14.84"/><rect class="cls-1" x="47.3" y="158.74" width="237.89" height="20.46" rx="10.23"/><path class="cls-4" d="M397,152.93l18.72,77,18.71-77h2.39l-19.16,79.88h-3.77l-19.51-79.88Z"/><path class="cls-4" d="M448.11,152.93v79.88H445.6V152.93Z"/><path class="cls-4" d="M457.23,232.81V152.93h2.52v77.48h26.81v2.4Z"/><path class="cls-4" d="M495.23,232.81V152.93h2.51v77.48h26.81v2.4Z"/><path class="cls-4" d="M539.84,214l-4.68,18.83h-2.28l19.28-80h3.54l19.74,80h-2.51L568.25,214Zm.46-2.28h27.5l-13.92-55.92Z"/><path class="cls-2" d="M394,394.93V254.14H425.1q16.71,0,24.46,6.69T457.3,283V293c0,2.87-.06,5.72-.17,8.53-.36,5.64-1.62,10.12-3.79,13.47s-5.6,5.72-10.29,7.12v3.52q7.4,2.12,10.73,7.22t3.7,13.73c.23,3.63.32,6.92.26,9.85s-.15,6.16-.26,9.68q-.53,15.49-7.92,22.18t-24.29,6.68ZM414,314.68H425.8q11.26,0,11.26-13.72c.12-3.41.18-6.57.18-9.51s-.06-6.1-.18-9.5q0-9.85-12-9.86H414Zm0,62.3h11.26q6.35,0,9.15-2.73c1.88-1.81,2.88-4.6,3-8.35q.16-9.33,0-18.48-.18-8.1-2.82-11.44t-9-3.35H414Z"/><path class="cls-2" d="M504.29,396.34q-17.42,0-25-6.86t-7.92-22.71q-.35-28.14-.35-56.31t.35-56.32h20.24q-.53,28.17-.35,57.38t.35,57.37q0,10.73,12.67,10.73T517,368.89q.18-28.15.36-57.37T517,254.14H537.2q.36,28.17.36,56.32t-.36,56.31q-.18,15.84-7.83,22.71T504.29,396.34Z"/><path class="cls-2" d="M555,394.93V254.14h31q16.54,0,23.85,6.69t7.83,21.82q.35,10,.35,17.16t-.35,15.93q-.36,9.86-3.43,16a19.47,19.47,0,0,1-9.59,9.15l15.31,54h-21.3l-13.2-50.68H575v50.68ZM575,326.3H586q6,0,8.62-2.29t3-7.22q.34-9.32.35-17.59t-.35-17.43q-.36-5.1-3-7.39c-1.76-1.52-4.63-2.29-8.62-2.29H575Z"/><path class="cls-2" d="M664.62,396.34q-17.43,0-25.08-6.86t-8.18-22.88q-.18-12.84-.35-27.28t0-28.86q.16-14.43.35-27.1.69-16.37,8.27-23.5t25-7.13q16.89,0,24.46,6.87t8.45,22.7q.53,11.44,0,22.7H677.29q.53-12.5,0-24.81c-.24-4-1.26-6.78-3.08-8.36s-5-2.38-9.59-2.38-8,.8-9.86,2.38-2.93,4.37-3.16,8.36q-.89,22.69-.88,44.35t.88,44.17c.23,4.11,1.29,7,3.16,8.54s5.17,2.37,9.86,2.37q7.56,0,10.47-2.37c1.94-1.59,3-4.43,3.26-8.54a191.75,191.75,0,0,0,0-20.06h-11.8V330.87h31.51q.35,9.51.26,18.57t-.44,17.16q-.52,16-8.18,22.88T664.62,396.34Z"/><path class="cls-2" d="M709.85,394.93V254.14h55.43v17.95H729.91v42.59h33.61v17.95H729.91V377h35.37v17.95Z"/><path class="cls-2" d="M777.6,394.93V254.14h31q16.53,0,23.84,6.69t7.83,21.82q.36,10,.35,17.16t-.35,15.93q-.35,9.86-3.43,16a19.38,19.38,0,0,1-9.59,9.15l15.31,54H821.25l-13.2-50.68H797.66v50.68Zm20.06-68.63h10.92c4,0,6.86-.76,8.62-2.29s2.75-3.93,3-7.22q.34-9.32.35-17.59t-.35-17.43c-.24-3.4-1.23-5.86-3-7.39s-4.64-2.29-8.62-2.29H797.66Z"/><path d="M403.34,414.33v.52h-.88v-.56c0-3.31-1.24-6.11-4.88-6.11s-4.91,2.76-4.91,6.07c0,7.16,10.71,7,10.71,14.56,0,3.88-1.6,7-5.88,7s-5.83-3.08-5.83-7v-1.36h.84v1.4c0,3.4,1.31,6.08,5,6.08s5-2.68,5-6.08c0-7.08-10.71-6.84-10.71-14.56,0-4.07,1.72-6.87,5.75-6.91C401.78,407.38,403.34,410.49,403.34,414.33Z"/><path d="M408.82,429l-1.63,6.6h-.8l6.75-28h1.24l6.92,28h-.88l-1.64-6.6Zm.16-.8h9.64l-4.88-19.59Z"/><path d="M430,407.58c4.08,0,5.4,2,5.4,5.79v1.8c0,3.12-.84,5-4,5.48,3.32.48,4.56,2.76,4.56,6v2.48c0,4-1.68,6.44-5.92,6.44h-5.64v-28Zm-1.08,12.71c3.88,0,5.6-.92,5.6-5v-1.88c0-3.27-1-5-4.52-5h-4.72v11.87ZM430,434.73c3.68,0,5-2.08,5-5.6v-2.52c0-4-1.92-5.52-5.76-5.52h-4v13.64Z"/><path d="M439,414.45c0-4.64,2-7.07,5.92-7.07s6,2.43,6,7.07v14.24c0,4.64-2,7.08-6,7.08s-5.92-2.44-5.92-7.08Zm.88,14.28c0,4.12,1.72,6.24,5,6.24s5.12-2.12,5.12-6.24V414.41c0-4.11-1.76-6.23-5.12-6.23s-5,2.12-5,6.23Z"/><path d="M459.66,407.58c4.16,0,5.76,2.44,5.76,6.27v2.52c0,3.44-1.36,5.32-4.44,5.88,3.12.48,4.44,2.52,4.44,5.6v4.4a5.91,5.91,0,0,0,.76,3.32h-1a6.35,6.35,0,0,1-.68-3.32v-4.4c0-4.12-2.48-5.2-6.12-5.2H455v12.92h-.88v-28Zm-1.24,14.23c3.88,0,6.12-1,6.12-5.32v-2.56c0-3.4-1.32-5.51-4.92-5.51H455v13.39Z"/><path d="M476.34,428.69c0,3.36,1.2,6.28,4.92,6.28s4.92-2.92,4.92-6.28V407.58H487v21.07c0,3.84-1.52,7.12-5.76,7.12s-5.8-3.28-5.8-7.12V407.58h.88Z"/><path d="M495.74,407.58c4.16,0,5.76,2.44,5.76,6.27v2.52c0,3.44-1.36,5.32-4.44,5.88,3.12.48,4.44,2.52,4.44,5.6v4.4a5.91,5.91,0,0,0,.76,3.32h-1a6.35,6.35,0,0,1-.68-3.32v-4.4c0-4.12-2.48-5.2-6.12-5.2h-3.44v12.92h-.88v-28Zm-1.24,14.23c3.88,0,6.12-1,6.12-5.32v-2.56c0-3.4-1.32-5.51-4.92-5.51h-4.64v13.39Z"/><path d="M511,407.58c4.08,0,5.4,2,5.4,5.79v1.8c0,3.12-.84,5-4,5.48,3.32.48,4.56,2.76,4.56,6v2.48c0,4-1.68,6.44-5.92,6.44h-5.64v-28Zm-1.08,12.71c3.88,0,5.6-.92,5.6-5v-1.88c0-3.27-1-5-4.52-5h-4.72v11.87ZM511,434.73c3.68,0,5-2.08,5-5.6v-2.52c0-4-1.92-5.52-5.76-5.52h-4v13.64Z"/><path d="M522.38,429l-1.64,6.6h-.8l6.76-28h1.24l6.92,28H534l-1.64-6.6Zm.16-.8h9.64l-4.88-19.59Z"/><path d="M538.78,435.57h-.84v-28h1.24L549,433.77V407.58h.84v28h-1.08l-10-26.71Z"/><path d="M553,414.45c0-4.64,2-7.07,5.92-7.07s6,2.43,6,7.07v14.24c0,4.64-2,7.08-6,7.08s-5.92-2.44-5.92-7.08Zm.88,14.28c0,4.12,1.72,6.24,5,6.24s5.12-2.12,5.12-6.24V414.41c0-4.11-1.76-6.23-5.12-6.23s-5,2.12-5,6.23Z"/></g></g></svg>