<?xml version="1.0" encoding="utf-8"?>
<!-- Generator: Adobe Illustrator 16.0.3, SVG Export Plug-In . SVG Version: 6.00 Build 0)  -->
<!DOCTYPE svg PUBLIC "-//W3C//DTD SVG 1.1//EN" "http://www.w3.org/Graphics/SVG/1.1/DTD/svg11.dtd">
<svg version="1.1" id="Capa_1" xmlns="http://www.w3.org/2000/svg" xmlns:xlink="http://www.w3.org/1999/xlink" x="0px" y="0px"
	 width="350.752px" height="126.65px" viewBox="0 0 350.752 126.65" enable-background="new 0 0 350.752 126.65"
	 xml:space="preserve">
<g id="Capa_1_1_">
	<polygon fill="#A6343E" points="305.727,125.651 46.53,125.25 2.623,62.529 44.632,3.157 304.313,3.002 348.478,64.398 	"/>
</g>
<rect x="70.336" y="56.259" fill="none" width="213.987" height="34.386"/>
<g>
	<g id="XMLID_1_">
		<g>
			<path fill="#FFFFFF" d="M284.696,50.865c2.33,2.41,3.5,5.76,3.5,10.05c0,4.26-1.16,7.59-3.471,9.99
				c-2.319,2.41-5.409,3.61-9.279,3.61c-3.931,0-7.04-1.19-9.36-3.591c-2.31-2.39-3.47-5.68-3.47-9.879c0-2.69,0.399-4.94,1.21-6.77
				c0.6-1.34,1.41-2.54,2.45-3.61c1.04-1.07,2.17-1.86,3.409-2.38c1.641-0.69,3.54-1.04,5.681-1.04
				C279.256,47.245,282.366,48.446,284.696,50.865z M282.686,60.796c0-3.02-0.659-5.28-1.979-6.77c-1.33-1.48-3.09-2.23-5.28-2.23
				c-2.2,0-3.97,0.76-5.31,2.26c-1.34,1.51-2.01,3.77-2.01,6.81c0,2.99,0.689,5.25,2.06,6.79c1.38,1.54,3.13,2.31,5.26,2.31
				c2.12,0,3.86-0.76,5.22-2.29C282.006,66.146,282.686,63.856,282.686,60.796z"/>
			<path fill="#FFFFFF" d="M259.186,61.135c0,2.17-0.279,4.04-0.819,5.61c-0.66,1.92-1.601,3.47-2.82,4.66
				c-0.92,0.9-2.17,1.6-3.74,2.1c-1.18,0.38-2.75,0.561-4.71,0.561h-10.02v-26.37h9.729c2.19,0,3.86,0.17,5.021,0.51
				c1.54,0.45,2.87,1.26,3.97,2.42c1.11,1.17,1.95,2.59,2.521,4.28C258.896,56.585,259.186,58.665,259.186,61.135z M253.676,60.895
				c0-2.03-0.18-3.6-0.54-4.69c-0.359-1.09-0.859-1.94-1.51-2.56c-0.65-0.61-1.47-1.02-2.47-1.24c-0.74-0.16-2.2-0.25-4.37-0.25
				h-2.391v17.47h3.98c1.48,0,2.56-0.09,3.22-0.25c0.86-0.22,1.58-0.58,2.15-1.1c0.57-0.521,1.03-1.36,1.39-2.55
				C253.496,64.545,253.676,62.935,253.676,60.895z"/>
			<rect x="226.686" y="47.696" fill="#FFFFFF" width="5.33" height="26.37"/>
			<polygon fill="#FFFFFF" points="221.216,47.696 221.216,74.066 215.876,74.066 205.246,56.865 205.246,74.066 200.296,74.066 
				200.296,47.696 205.486,47.696 216.276,65.306 216.276,47.696 			"/>
			<polygon fill="#FFFFFF" points="195.736,69.625 195.736,74.066 175.676,74.066 175.676,47.696 195.226,47.696 195.226,52.156 
				180.996,52.156 180.996,58.006 194.236,58.006 194.236,62.446 180.996,62.446 180.996,69.625 			"/>
			<polygon fill="#FFFFFF" points="172.956,47.696 163.516,74.066 157.826,74.066 148.406,47.696 154.176,47.696 160.846,67.215 
				167.306,47.696 			"/>
			<polygon fill="#FFFFFF" points="145.466,47.696 145.466,74.066 140.126,74.066 129.496,56.865 129.496,74.066 124.546,74.066 
				124.546,47.696 129.726,47.696 140.526,65.306 140.526,47.696 			"/>
			<polygon fill="#FFFFFF" points="119.976,69.625 119.976,74.066 99.916,74.066 99.916,47.696 119.476,47.696 119.476,52.156 
				105.246,52.156 105.246,58.006 118.486,58.006 118.486,62.446 105.246,62.446 105.246,69.625 			"/>
			<rect x="89.526" y="47.696" fill="#FFFFFF" width="5.32" height="26.37"/>
			<path fill="#FFFFFF" d="M85.186,66.425c0,1.2-0.28,2.36-0.84,3.5c-0.55,1.131-1.31,2.04-2.28,2.71
				c-0.97,0.681-2.16,1.101-3.57,1.25c-0.89,0.101-3.03,0.16-6.42,0.181h-8.98v-26.37h10.54c2.09,0,3.65,0.09,4.67,0.26
				c1.03,0.18,1.94,0.54,2.75,1.09c0.81,0.55,1.49,1.29,2.03,2.2c0.54,0.92,0.81,1.95,0.81,3.09c0,1.23-0.34,2.37-1,3.4
				c-0.67,1.03-1.57,1.8-2.71,2.32c1.61,0.47,2.84,1.27,3.71,2.39C84.756,63.575,85.186,64.906,85.186,66.425z M79.686,66.175
				c0-0.79-0.19-1.47-0.58-2.02c-0.38-0.55-0.94-0.95-1.66-1.2c-0.73-0.26-2.3-0.38-4.72-0.38h-4.3v7.05h4.92
				c1.92,0,3.14-0.05,3.66-0.16c0.79-0.149,1.43-0.5,1.93-1.05C79.436,67.856,79.686,67.106,79.686,66.175z M78.716,55.085
				c0-0.81-0.23-1.47-0.68-1.98c-0.45-0.51-1.12-0.82-2-0.93c-0.53-0.06-2.05-0.09-4.56-0.09h-3.05v6.1h3.49
				c2.07,0,3.36-0.03,3.86-0.09c0.91-0.11,1.63-0.42,2.15-0.95C78.446,56.625,78.716,55.946,78.716,55.085z"/>
		</g>
		<g>
			<path fill="none" stroke="#FFFFFF" stroke-miterlimit="10" d="M63.096,47.696h10.54c2.09,0,3.65,0.09,4.67,0.26
				c1.03,0.18,1.94,0.54,2.75,1.09c0.81,0.55,1.49,1.29,2.03,2.2c0.54,0.92,0.81,1.95,0.81,3.09c0,1.23-0.34,2.37-1,3.4
				c-0.67,1.03-1.57,1.8-2.71,2.32c1.61,0.47,2.84,1.27,3.71,2.39c0.86,1.13,1.29,2.46,1.29,3.979c0,1.2-0.28,2.36-0.84,3.5
				c-0.55,1.131-1.31,2.04-2.28,2.71c-0.97,0.681-2.16,1.101-3.57,1.25c-0.89,0.101-3.03,0.16-6.42,0.181h-8.98V47.696z"/>
			<path fill="none" stroke="#FFFFFF" stroke-miterlimit="10" d="M68.426,52.085v6.1h3.49c2.07,0,3.36-0.03,3.86-0.09
				c0.91-0.11,1.63-0.42,2.15-0.95c0.52-0.52,0.79-1.2,0.79-2.06c0-0.81-0.23-1.47-0.68-1.98c-0.45-0.51-1.12-0.82-2-0.93
				c-0.53-0.06-2.05-0.09-4.56-0.09H68.426z"/>
			<path fill="none" stroke="#FFFFFF" stroke-miterlimit="10" d="M68.426,62.575v7.05h4.92c1.92,0,3.14-0.05,3.66-0.16
				c0.79-0.149,1.43-0.5,1.93-1.05c0.5-0.56,0.75-1.31,0.75-2.24c0-0.79-0.19-1.47-0.58-2.02c-0.38-0.55-0.94-0.95-1.66-1.2
				c-0.73-0.26-2.3-0.38-4.72-0.38H68.426z"/>
			<rect x="89.526" y="47.696" fill="none" stroke="#FFFFFF" stroke-miterlimit="10" width="5.32" height="26.37"/>
			<polygon fill="none" stroke="#FFFFFF" stroke-miterlimit="10" points="99.916,74.066 99.916,47.696 119.476,47.696 
				119.476,52.156 105.246,52.156 105.246,58.006 118.486,58.006 118.486,62.446 105.246,62.446 105.246,69.625 119.976,69.625 
				119.976,74.066 			"/>
			<polygon fill="none" stroke="#FFFFFF" stroke-miterlimit="10" points="124.546,74.066 124.546,47.696 129.726,47.696 
				140.526,65.306 140.526,47.696 145.466,47.696 145.466,74.066 140.126,74.066 129.496,56.865 129.496,74.066 			"/>
			<polygon fill="none" stroke="#FFFFFF" stroke-miterlimit="10" points="157.826,74.066 148.406,47.696 154.176,47.696 
				160.846,67.215 167.306,47.696 172.956,47.696 163.516,74.066 			"/>
			<polygon fill="none" stroke="#FFFFFF" stroke-miterlimit="10" points="175.676,74.066 175.676,47.696 195.226,47.696 
				195.226,52.156 180.996,52.156 180.996,58.006 194.236,58.006 194.236,62.446 180.996,62.446 180.996,69.625 195.736,69.625 
				195.736,74.066 			"/>
			<polygon fill="none" stroke="#FFFFFF" stroke-miterlimit="10" points="200.296,74.066 200.296,47.696 205.486,47.696 
				216.276,65.306 216.276,47.696 221.216,47.696 221.216,74.066 215.876,74.066 205.246,56.865 205.246,74.066 			"/>
			<rect x="226.686" y="47.696" fill="none" stroke="#FFFFFF" stroke-miterlimit="10" width="5.33" height="26.37"/>
			<path fill="none" stroke="#FFFFFF" stroke-miterlimit="10" d="M237.076,47.696h9.729c2.19,0,3.86,0.17,5.021,0.51
				c1.54,0.45,2.87,1.26,3.97,2.42c1.11,1.17,1.95,2.59,2.521,4.28c0.579,1.68,0.869,3.76,0.869,6.23c0,2.17-0.279,4.04-0.819,5.61
				c-0.66,1.92-1.601,3.47-2.82,4.66c-0.92,0.9-2.17,1.6-3.74,2.1c-1.18,0.38-2.75,0.561-4.71,0.561h-10.02V47.696z"/>
			<path fill="none" stroke="#FFFFFF" stroke-miterlimit="10" d="M242.396,52.156v17.47h3.98c1.48,0,2.56-0.09,3.22-0.25
				c0.86-0.22,1.58-0.58,2.15-1.1c0.57-0.521,1.03-1.36,1.39-2.55c0.36-1.181,0.54-2.791,0.54-4.831c0-2.03-0.18-3.6-0.54-4.69
				c-0.359-1.09-0.859-1.94-1.51-2.56c-0.65-0.61-1.47-1.02-2.47-1.24c-0.74-0.16-2.2-0.25-4.37-0.25H242.396z"/>
			<path fill="none" stroke="#FFFFFF" stroke-miterlimit="10" d="M262.616,61.046c0-2.69,0.399-4.94,1.21-6.77
				c0.6-1.34,1.41-2.54,2.45-3.61c1.04-1.07,2.17-1.86,3.409-2.38c1.641-0.69,3.54-1.04,5.681-1.04c3.89,0,7,1.2,9.33,3.62
				c2.33,2.41,3.5,5.76,3.5,10.05c0,4.26-1.16,7.59-3.471,9.99c-2.319,2.41-5.409,3.61-9.279,3.61c-3.931,0-7.04-1.19-9.36-3.591
				C263.776,68.535,262.616,65.245,262.616,61.046z"/>
			<path fill="none" stroke="#FFFFFF" stroke-miterlimit="10" d="M268.106,60.865c0,2.99,0.689,5.25,2.06,6.79
				c1.38,1.54,3.13,2.31,5.26,2.31c2.12,0,3.86-0.76,5.22-2.29c1.36-1.529,2.04-3.819,2.04-6.879c0-3.02-0.659-5.28-1.979-6.77
				c-1.33-1.48-3.09-2.23-5.28-2.23c-2.2,0-3.97,0.76-5.31,2.26C268.776,55.566,268.106,57.825,268.106,60.865z"/>
		</g>
	</g>
</g>
<path fill="#FFFFFF" stroke="#FFFFFF" stroke-miterlimit="10" d="M284.643,84.303c0,1.064-1.455,1.93-3.25,1.93H66.346
	c-1.795,0-3.25-0.864-3.25-1.93l0,0c0-1.065,1.455-1.931,3.25-1.931h215.046C283.188,82.372,284.643,83.238,284.643,84.303
	L284.643,84.303z"/>
</svg>
