<?xml version="1.0" encoding="utf-8"?>
<!-- Generator: Adobe Illustrator 16.0.3, SVG Export Plug-In . SVG Version: 6.00 Build 0)  -->
<!DOCTYPE svg PUBLIC "-//W3C//DTD SVG 1.1//EN" "http://www.w3.org/Graphics/SVG/1.1/DTD/svg11.dtd">
<svg version="1.1" id="Capa_1" xmlns="http://www.w3.org/2000/svg" xmlns:xlink="http://www.w3.org/1999/xlink" x="0px" y="0px"
	 width="224.62px" height="200.489px" viewBox="90.536 100.244 224.62 200.489"
	 enable-background="new 90.536 100.244 224.62 200.489" xml:space="preserve">
<polygon fill="#FEA42C" points="215.479,117.244 232.44,156.726 279.233,138.22 271.068,178.41 313.155,191.334 279.866,214.688 
	301.375,251.732 257.479,250.218 249.401,291.156 215.479,261.656 181.556,291.156 177.618,250.675 129.583,251.732 154.87,216.104 
	117.801,191.334 161.224,180.903 151.725,138.22 198.517,155.173 "/>
<g>
	<path fill="#FFFFFF" d="M195.349,231.93h-10.596v-36.201l-12.649,3.477v-7.635l22.108-7.02h1.137V231.93z"/>
	<path fill="#FFFFFF" d="M238.027,219.485c0-1.777-0.556-3.191-1.668-4.241c-1.112-1.051-3.002-2.021-5.664-2.908
		c-2.665-0.888-4.963-1.771-6.894-2.648c-1.932-0.878-3.588-1.885-4.97-3.022c-1.381-1.138-2.456-2.475-3.225-4.015
		c-0.771-1.536-1.155-3.366-1.155-5.491c0-3.661,1.32-6.661,3.959-9.001c2.64-2.34,6.147-3.705,10.523-4.095v-6.954h5.866v7.052
		c4.327,0.542,7.712,2.14,10.156,4.793c2.444,2.654,3.666,6.093,3.666,10.318h-10.596c0-2.6-0.605-4.545-1.814-5.833
		c-1.211-1.289-2.831-1.934-4.857-1.934c-2.006,0-3.559,0.504-4.659,1.511c-1.099,1.007-1.648,2.399-1.648,4.176
		c0,1.646,0.537,2.968,1.613,3.965c1.074,0.996,3.073,2.014,5.994,3.055c2.921,1.039,5.323,2.021,7.205,2.94
		c1.883,0.921,3.471,1.961,4.766,3.119c1.296,1.16,2.287,2.481,2.971,3.965c0.684,1.484,1.026,3.212,1.026,5.184
		c0,3.683-1.295,6.673-3.886,8.968c-2.591,2.297-6.16,3.651-10.707,4.063v6.466h-5.83v-6.435c-5.01-0.477-8.891-2.052-11.64-4.728
		c-2.751-2.676-4.126-6.232-4.126-10.675h10.596c0,2.577,0.691,4.555,2.072,5.93c1.381,1.376,3.367,2.064,5.958,2.064
		c2.151,0,3.85-0.504,5.097-1.512C237.404,222.555,238.027,221.196,238.027,219.485z"/>
</g>
<polygon fill="none" stroke="#F9F9F9" stroke-width="4" stroke-miterlimit="10" points="200.078,105.244 218.231,148.207 
	268.313,128.07 259.574,171.802 304.62,185.866 268.991,211.279 292.012,251.59 245.03,249.94 236.386,294.489 200.078,262.387 
	163.771,294.489 159.557,250.439 108.145,251.59 135.209,212.821 95.536,185.866 142.01,174.516 131.843,128.07 181.924,146.517 "/>
</svg>
