<svg xmlns="http://www.w3.org/2000/svg" viewBox="0 0 838.77 539.85"><defs><style>.cls-1{fill:#a5343f;}.cls-2{fill:#fff;}.cls-3{fill:#ffa42c;}</style></defs><title>Villa burger completo vino</title><g id="Logo_v2" data-name="Logo v2"><g id="Capa_12" data-name="Capa 12"><path class="cls-1" d="M2.35,144.55H331.22a155.94,155.94,0,0,1-.23,49.09H2.35a129.15,129.15,0,0,1,0-49.09Z"/><circle class="cls-1" cx="166.33" cy="166.33" r="166.33"/><path class="cls-1" d="M4.72,208.8c8.18,21.14,116.83,301.58,130.52,316.57a50.72,50.72,0,0,0,8.86,7.5,39.42,39.42,0,0,0,45-.11,53,53,0,0,0,8.25-6.71C210.7,512.36,319.76,230.2,327.78,209.43Z"/><circle class="cls-2" cx="166.25" cy="160.42" r="117.92"/><circle class="cls-3" cx="166.53" cy="161.1" r="102.84"/><rect class="cls-2" x="38.53" y="152.08" width="256.82" height="33.79" rx="14.84"/><rect class="cls-1" x="47.3" y="158.74" width="237.89" height="20.46" rx="10.23"/><path class="cls-3" d="M393.22,154.16l18.72,77,18.71-77h2.4L413.88,234h-3.77L390.6,154.16Z"/><path class="cls-3" d="M444.34,154.16V234h-2.51V154.16Z"/><path class="cls-3" d="M453.47,234V154.16H456v77.48h26.81V234Z"/><path class="cls-3" d="M491.46,234V154.16H494v77.48h26.82V234Z"/><path class="cls-3" d="M536.07,215.21,531.4,234h-2.29l19.29-80h3.53l19.74,80h-2.51l-4.67-18.83Zm.46-2.28H564L550.11,157Z"/><path class="cls-1" d="M390.18,396.16V255.37h31.15q16.71,0,24.46,6.69t7.75,22.17v9.95c0,2.87-.07,5.72-.18,8.53-.35,5.64-1.61,10.12-3.78,13.47s-5.61,5.72-10.3,7.12v3.52q7.39,2.12,10.74,7.22t3.69,13.73c.23,3.63.32,6.92.27,9.85s-.15,6.16-.27,9.68q-.52,15.49-7.92,22.17t-24.28,6.69Zm20.06-80.25H422q11.27,0,11.27-13.73c.11-3.4.17-6.56.17-9.5s-.06-6.1-.17-9.5q0-9.85-12-9.86H410.24Zm0,62.3h11.27q6.33,0,9.15-2.73t3-8.36q.17-9.31,0-18.47-.18-8.1-2.82-11.44t-9-3.35H410.24Z"/><path class="cls-1" d="M500.53,397.57q-17.43,0-25-6.86T467.62,368q-.36-28.15-.36-56.31t.36-56.32h20.23q-.53,28.15-.35,57.37t.35,57.38q0,10.72,12.68,10.73t12.67-10.73q.16-28.15.35-57.38t-.35-57.37h20.24q.34,28.15.35,56.32T533.44,368q-.18,15.84-7.84,22.71T500.53,397.57Z"/><path class="cls-1" d="M551.21,396.16V255.37h31q16.55,0,23.85,6.69t7.83,21.82q.35,10,.35,17.16T613.86,317q-.36,9.86-3.43,16a19.38,19.38,0,0,1-9.59,9.15l15.31,54h-21.3l-13.19-50.68H571.27v50.68Zm20.06-68.63h10.91q6,0,8.63-2.29c1.76-1.52,2.75-3.93,3-7.22q.35-9.31.35-17.59T593.8,283c-.24-3.4-1.23-5.86-3-7.39s-4.64-2.29-8.63-2.29H571.27Z"/><path class="cls-1" d="M660.85,397.57q-17.42,0-25.08-6.86t-8.18-22.88q-.18-12.84-.35-27.28t0-28.86q.16-14.43.35-27.1.7-16.36,8.27-23.5t25-7.13q16.89,0,24.46,6.87t8.45,22.7q.53,11.45,0,22.7H673.52q.53-12.5,0-24.81-.35-6-3.08-8.36c-1.82-1.59-5-2.38-9.59-2.38s-8,.79-9.85,2.38-2.94,4.37-3.17,8.36q-.89,22.69-.88,44.35t.88,44.17c.23,4.11,1.29,6.95,3.17,8.54s5.16,2.37,9.85,2.37c5,0,8.54-.79,10.47-2.37s3-4.43,3.26-8.54a191.75,191.75,0,0,0,0-20.06H662.79V332.1h31.5q.35,9.51.26,18.57t-.44,17.16q-.52,16-8.18,22.88T660.85,397.57Z"/><path class="cls-1" d="M706.08,396.16V255.37h55.44v17.95H726.14v42.59h33.62v17.95H726.14v44.35h35.38v18Z"/><path class="cls-1" d="M773.83,396.16V255.37h31q16.53,0,23.84,6.69t7.84,21.82q.35,10,.35,17.16T836.49,317q-.36,9.86-3.44,16a19.38,19.38,0,0,1-9.59,9.15l15.31,54H817.48l-13.2-50.68H793.9v50.68Zm20.07-68.63h10.91c4,0,6.86-.76,8.62-2.29s2.76-3.93,3-7.22q.36-9.31.35-17.59T816.42,283q-.34-5.1-3-7.39c-1.76-1.52-4.64-2.29-8.62-2.29H793.9Z"/><path d="M399.58,415.56v.52h-.88v-.56c0-3.32-1.24-6.12-4.88-6.12s-4.92,2.76-4.92,6.08c0,7.16,10.72,7,10.72,14.56,0,3.88-1.6,7-5.88,7s-5.84-3.08-5.84-7v-1.36h.84v1.4c0,3.4,1.32,6.08,5,6.08s5-2.68,5-6.08c0-7.08-10.72-6.84-10.72-14.56,0-4.08,1.72-6.88,5.76-6.92C398,408.6,399.58,411.72,399.58,415.56Z"/><path d="M405.06,430.2l-1.64,6.6h-.8l6.76-28h1.24l6.91,28h-.88L415,430.2Zm.16-.8h9.64L410,409.81Z"/><path d="M426.22,408.81c4.08,0,5.39,2,5.39,5.79v1.8c0,3.12-.84,5-4,5.48,3.32.48,4.55,2.76,4.55,6v2.48c0,4-1.67,6.44-5.91,6.44h-5.64v-28Zm-1.08,12.71c3.88,0,5.6-.92,5.6-5v-1.88c0-3.28-1-5-4.52-5H421.5v11.88ZM426.26,436c3.68,0,5-2.08,5-5.6v-2.52c0-4-1.91-5.52-5.75-5.52h-4V436Z"/><path d="M435.26,415.68c0-4.64,2-7.08,5.92-7.08s6,2.44,6,7.08v14.24c0,4.64-2,7.08-6,7.08s-5.92-2.44-5.92-7.08Zm.88,14.28c0,4.12,1.72,6.24,5,6.24s5.11-2.12,5.11-6.24V415.64c0-4.12-1.75-6.24-5.11-6.24s-5,2.12-5,6.24Z"/><path d="M455.9,408.81c4.15,0,5.75,2.43,5.75,6.27v2.52c0,3.44-1.36,5.32-4.44,5.88,3.12.48,4.44,2.52,4.44,5.6v4.4a5.91,5.91,0,0,0,.76,3.32h-1a6.35,6.35,0,0,1-.68-3.32v-4.4c0-4.12-2.48-5.2-6.11-5.2h-3.44V436.8h-.88v-28ZM454.66,423c3.87,0,6.11-1,6.11-5.32v-2.56c0-3.4-1.32-5.52-4.91-5.52h-4.64V423Z"/><path d="M472.58,429.92c0,3.36,1.2,6.28,4.92,6.28s4.91-2.92,4.91-6.28V408.81h.84v21.07c0,3.84-1.52,7.12-5.75,7.12s-5.8-3.28-5.8-7.12V408.81h.88Z"/><path d="M492,408.81c4.16,0,5.76,2.43,5.76,6.27v2.52c0,3.44-1.36,5.32-4.44,5.88,3.12.48,4.44,2.52,4.44,5.6v4.4a5.91,5.91,0,0,0,.76,3.32h-1a6.35,6.35,0,0,1-.68-3.32v-4.4c0-4.12-2.48-5.2-6.12-5.2H487.3V436.8h-.88v-28ZM490.73,423c3.88,0,6.12-1,6.12-5.32v-2.56c0-3.4-1.32-5.52-4.92-5.52H487.3V423Z"/><path d="M507.21,408.81c4.08,0,5.4,2,5.4,5.79v1.8c0,3.12-.84,5-4,5.48,3.32.48,4.56,2.76,4.56,6v2.48c0,4-1.68,6.44-5.92,6.44h-5.63v-28Zm-1.08,12.71c3.88,0,5.6-.92,5.6-5v-1.88c0-3.28-1-5-4.52-5H502.5v11.88ZM507.25,436c3.68,0,5-2.08,5-5.6v-2.52c0-4-1.92-5.52-5.76-5.52h-4V436Z"/><path d="M518.61,430.2,517,436.8h-.8l6.75-28h1.24l6.92,28h-.88l-1.64-6.6Zm.16-.8h9.64l-4.88-19.59Z"/><path d="M535,436.8h-.84v-28h1.24L545.25,435V408.81h.84v28H545l-10-26.72Z"/><path d="M549.25,415.68c0-4.64,2-7.08,5.92-7.08s6,2.44,6,7.08v14.24c0,4.64-2,7.08-6,7.08s-5.92-2.44-5.92-7.08Zm.88,14.28c0,4.12,1.72,6.24,5,6.24s5.12-2.12,5.12-6.24V415.64c0-4.12-1.76-6.24-5.12-6.24s-5,2.12-5,6.24Z"/></g></g></svg>