<?xml version="1.0" encoding="utf-8"?>
<!-- Generator: Adobe Illustrator 16.0.3, SVG Export Plug-In . SVG Version: 6.00 Build 0)  -->
<!DOCTYPE svg PUBLIC "-//W3C//DTD SVG 1.1//EN" "http://www.w3.org/Graphics/SVG/1.1/DTD/svg11.dtd">
<svg version="1.1" id="Capa_1" xmlns="http://www.w3.org/2000/svg" xmlns:xlink="http://www.w3.org/1999/xlink" x="0px" y="0px"
	 width="380px" height="150px" viewBox="0 0 380 150" enable-background="new 0 0 380 150" xml:space="preserve">
<g id="Capa_1_1_">
	<polygon stroke="#000000" stroke-miterlimit="10" points="331.585,141.741 50.172,141.307 2.5,73.209 48.111,8.75 330.05,8.58 
		378,75.239 	"/>
</g>
<rect x="76.365" y="54.653" fill="none" width="232.329" height="37.333"/>
<text transform="matrix(0.9762 0 0 1 68.5547 84.6543)" fill="#FFFFFF" font-family="'ArialMT'" font-size="40">BIENVENIDO</text>
<path fill="#FFFFFF" d="M63.676,72.32c0,1.657-1.311,3-2.929,3H34.715c-1.618,0-2.928-1.343-2.928-3l0,0c0-1.657,1.311-3,2.928-3
	h26.032C62.364,69.32,63.676,70.663,63.676,72.32L63.676,72.32z"/>
<path fill="#FFFFFF" d="M347.09,72.32c0,1.657-1.312,3-2.929,3H318.13c-1.617,0-2.929-1.343-2.929-3l0,0c0-1.657,1.312-3,2.929-3
	h26.031c1.617,1,2.929,2.343,2.929,4l0,0V72.32z"/>
</svg>
