<svg xmlns="http://www.w3.org/2000/svg" viewBox="0 0 843.52 539.85"><defs><style>.cls-1,.cls-5{fill:#a5343f;}.cls-2{fill:#fff;}.cls-3,.cls-4{fill:#ffa42c;}.cls-4{font-size:114.1px;}.cls-10,.cls-4{font-family:BebasNeueLight, Bebas Neue;}.cls-5{font-size:175.99px;font-family:BigShouldersText-Bold, Big Shoulders Text;font-weight:700;}.cls-6{letter-spacing:-0.01em;}.cls-7{letter-spacing:0em;}.cls-8{letter-spacing:-0.01em;}.cls-9{letter-spacing:-0.01em;}.cls-10{font-size:40px;}</style></defs><title>Villa Burger logo completo vinotinto</title><g id="Logo_v2" data-name="Logo v2"><g id="Capa_12" data-name="Capa 12"><path class="cls-1" d="M2.35,144.55H331.22a155.94,155.94,0,0,1-.23,49.09H2.35a129.15,129.15,0,0,1,0-49.09Z"/><circle class="cls-1" cx="166.33" cy="166.33" r="166.33"/><path class="cls-1" d="M4.72,208.8c8.18,21.14,116.83,301.58,130.52,316.57a50.72,50.72,0,0,0,8.86,7.5,39.42,39.42,0,0,0,45-.11,53,53,0,0,0,8.25-6.71C210.7,512.36,319.76,230.2,327.78,209.43Z"/><circle class="cls-2" cx="166.25" cy="160.42" r="117.92"/><circle class="cls-3" cx="166.53" cy="161.1" r="102.84"/><rect class="cls-2" x="38.53" y="152.08" width="256.82" height="33.79" rx="14.84"/><rect class="cls-1" x="47.3" y="158.74" width="237.89" height="20.46" rx="10.23"/><text class="cls-4" transform="translate(386.38 234.04)">VILLA</text><text class="cls-5" transform="translate(381.38 396.16)"><tspan class="cls-6">B</tspan><tspan class="cls-7" x="77.26" y="0">U</tspan><tspan class="cls-8" x="161.03" y="0">RG</tspan><tspan class="cls-9" x="315.9" y="0">E</tspan><tspan x="383.65" y="0">R</tspan></text><text class="cls-10" transform="translate(386.38 436.8)">SABOR URBANO</text></g></g></svg>